<?xml version="1.0" encoding="UTF-8"?><svg id="Layer_1" xmlns="http://www.w3.org/2000/svg" viewBox="0 0 24 24"><defs><style>.cls-1{fill:#fe41b2;stroke-width:0px;}</style></defs><path class="cls-1" d="M21.63,6.37c-.47-.77-1.04-1.53-1.75-2.23-.71-.71-1.48-1.29-2.27-1.75l1.38-1.38s2,0,3,1,1,3,1,3l-1.37,1.37ZM10,18h-4v-4l.48-.48c.81.39,1.62.93,2.35,1.65.73.73,1.27,1.54,1.65,2.35l-.48.48ZM20.48,7.52l-8.85,8.85c-.47-.77-1.04-1.53-1.75-2.23-.71-.71-1.48-1.29-2.27-1.75L16.48,3.52c.81.38,1.62.92,2.35,1.65.73.73,1.27,1.54,1.65,2.35ZM4,4v16h16v-7l3-3.04v11.04c0,1.11-.9,2-2,2H3c-1.1,0-2-.89-2-2V3c0-1.1.9-2,2-2h11.01l-3,3h-7.01Z"/></svg>